PathFileType	4	(X/Y/Z)	 s07c0001.trc
DataRate	CameraRate	NumFrames	NumMarkers	Units	OrigDataRate	OrigDataStartFrame	OrigNumFrames
200	200	4	49	mm	200	1501	2000
Frame#	Time	racr			lacr			c7			jug			rlel			rdr			llel			ldr			s2			lic			ric			lasi			rasi			rpsi			lpsi			rgt			lgt			rth1			rth2			rth3			rth4			rlfc			rmfc			rsh1			rsh2			rsh3			rsh4			rlmal			rmmal			rcal			rtoe			rmt5			rmt1			lth1			lth2			lth4			lth3			llfc			lmfc			lsh1			lsh2			lsh3			lsh4			llmal			lmmal			lcal			ltoe			lmt1			lmt5			
		X1	Y1	Z1	X2	Y2	Z2	X3	Y3	Z3	X4	Y4	Z4	X5	Y5	Z5	X6	Y6	Z6	X7	Y7	Z7	X8	Y8	Z8	X9	Y9	Z9	X10	Y10	Z10	X11	Y11	Z11	X12	Y12	Z12	X13	Y13	Z13	X14	Y14	Z14	X15	Y15	Z15	X16	Y16	Z16	X17	Y17	Z17	X18	Y18	Z18	X19	Y19	Z19	X20	Y20	Z20	X21	Y21	Z21	X22	Y22	Z22	X23	Y23	Z23	X24	Y24	Z24	X25	Y25	Z25	X26	Y26	Z26	X27	Y27	Z27	X28	Y28	Z28	X29	Y29	Z29	X30	Y30	Z30	X31	Y31	Z31	X32	Y32	Z32	X33	Y33	Z33	X34	Y34	Z34	X35	Y35	Z35	X36	Y36	Z36	X37	Y37	Z37	X38	Y38	Z38	X39	Y39	Z39	X40	Y40	Z40	X41	Y41	Z41	X42	Y42	Z42	X43	Y43	Z43	X44	Y44	Z44	X45	Y45	Z45	X46	Y46	Z46	X47	Y47	Z47	X48	Y48	Z48	X49	Y49	Z49	
1501	7.5050	181.535554	1569.895505	557.968599	208.802685	1567.843487	187.645976	147.831758	1607.430696	368.681726	270.806754	1517.478235	379.936642	249.007272	1226.225125	692.486370	399.429299	989.426075	806.241924	285.025434	1213.612542	92.097933	439.706019	975.043729	-9.244796	116.657390	1060.719328	363.091353	262.603587	1143.312992	227.295975	248.752887	1132.542502	531.498084	327.282682	1075.606828	260.651069	297.100850	1073.482997	523.866002	NaN	NaN	NaN	145.256603	1102.617283	307.920811	213.034962	976.240949	559.890478	245.931654	973.397698	209.965623	222.032335	847.412588	562.548025	245.200365	762.468048	555.214997	225.032180	679.560710	546.242649	281.533912	764.414913	547.598560	223.805632	537.940366	512.074803	233.045555	526.995519	416.502398	183.255013	400.390589	529.019174	200.066663	314.037319	509.318653	171.333950	232.671480	503.576601	223.387141	317.730953	476.888876	159.041558	91.798202	488.599761	200.946187	105.592452	410.875275	113.899404	41.209755	447.012605	395.369697	86.146905	505.293805	311.050728	36.229835	556.981671	328.151434	43.938580	449.508612	255.474595	855.844359	195.999373	278.251878	771.082922	203.512812	312.714911	771.912444	217.925971	254.682392	685.723195	211.493821	248.649538	531.084012	239.924403	242.657952	515.278169	327.841562	213.485030	396.096656	214.904133	229.786120	313.792051	236.419151	202.638075	226.736798	232.309098	239.859870	317.136814	276.537137	190.733513	91.020399	243.509848	225.054187	111.789412	324.729894	141.586116	37.516517	280.110836	423.145330	92.805174	249.200544	359.044489	47.660798	297.268407	345.645681	52.927885	192.405307	
1502	7.5100	181.551194	1569.889313	557.975116	208.839614	1567.836751	187.636551	147.903359	1607.400283	368.599746	270.837398	1517.479407	379.947845	248.984448	1226.218141	692.502702	399.455668	989.408855	806.214426	285.061469	1213.605710	92.126078	439.743633	975.039376	-9.234149	116.693033	1060.733901	363.100688	262.638151	1143.325499	227.288412	248.775096	1132.528302	531.490756	327.315224	1075.610844	260.645698	297.144972	1073.471426	523.846736	NaN	NaN	NaN	145.299205	1102.622263	307.926942	213.059197	976.231223	559.885216	245.981849	973.402292	209.979893	222.052881	847.417934	562.546178	245.210020	762.457077	555.206919	225.049098	679.532134	546.246155	281.544461	764.407311	547.579497	223.818630	537.934452	512.066014	233.072848	527.004051	416.498129	183.270597	400.391615	529.024566	200.072029	314.046037	509.328636	171.335311	232.669740	503.576331	223.409921	317.738705	476.906193	159.027380	91.792815	488.594133	200.955923	105.576807	410.885378	113.871981	41.227665	447.006339	395.366267	86.129730	505.275916	311.034596	36.243487	556.984673	328.153425	43.925779	449.525319	255.502533	855.851052	196.002423	278.264576	771.081070	203.480586	312.752291	771.917974	217.927722	254.693772	685.720554	211.499753	248.660862	531.081504	239.920477	242.594407	515.267747	327.758717	213.496375	396.095640	214.915861	229.786869	313.798694	236.429817	202.529678	226.866952	232.241735	239.887298	317.114269	276.546658	190.730215	91.014856	243.512597	225.051446	111.772357	324.723764	141.583338	37.513655	280.099148	423.120474	92.852763	249.174950	359.044484	47.660782	297.268397	345.635547	52.940135	192.413469	
1503	7.5150	181.590374	1569.888337	557.958993	208.837410	1567.843597	187.639966	147.911463	1607.433273	368.677484	270.841894	1517.467218	379.957940	249.029727	1226.199868	692.474665	399.464316	989.390308	806.194460	285.096365	1213.617399	92.104708	439.786575	975.032689	-9.225671	116.731103	1060.725608	363.085376	262.668171	1143.321727	227.285900	248.815716	1132.531387	531.493872	327.352802	1075.614621	260.663577	297.170056	1073.474442	523.857300	NaN	NaN	NaN	145.341187	1102.615441	307.914624	213.088844	976.236326	559.889759	246.008241	973.397132	209.962085	222.078505	847.424403	562.545044	245.223908	762.477178	555.199786	225.071435	679.538077	546.242037	281.558458	764.416141	547.603403	223.829642	537.939117	512.061227	233.057125	527.009815	416.486847	183.287205	400.405010	529.022262	200.093047	314.028808	509.321720	171.337892	232.678990	503.567868	223.414261	317.737058	476.892156	159.047200	91.796368	488.573972	200.949261	105.598614	410.890174	113.872704	41.197365	447.026404	395.369619	86.130060	505.266991	311.041635	36.236730	556.980149	328.181646	43.943094	449.512679	255.530823	855.861766	195.993760	278.292194	771.086532	203.488200	312.777431	771.914144	217.910895	254.716823	685.725412	211.496468	248.683722	531.099908	239.939016	242.602337	515.250374	327.765754	213.501363	396.101708	214.896897	229.805222	313.793392	236.414394	202.521856	226.862337	232.230497	239.868487	317.131838	276.524794	190.730355	91.004351	243.492401	225.049788	111.782435	324.733336	141.572031	37.520815	280.106684	423.134877	92.809697	249.211717	359.028846	47.631996	297.242362	345.640943	52.932462	192.399550	
1504	7.5200	181.615673	1569.872746	557.962084	208.861050	1567.835101	187.637048	147.940815	1607.432371	368.657245	270.882755	1517.463644	379.951123	249.048981	1226.194381	692.461773	399.490847	989.378795	806.171393	285.134411	1213.609971	92.096736	439.822882	975.021888	-9.217264	116.768356	1060.741325	363.097108	262.695613	1143.330008	227.280896	248.832927	1132.541515	531.497804	327.392792	1075.589845	260.665395	297.194540	1073.483845	523.865852	NaN	NaN	NaN	145.383958	1102.613246	307.918688	213.120879	976.229052	559.884872	246.053715	973.399356	209.962714	222.098790	847.425129	562.541705	245.249255	762.477627	555.202708	225.081881	679.541135	546.253835	281.579105	764.427015	547.614444	223.862996	537.924782	512.070894	233.091150	527.002869	416.493444	183.284741	400.405498	529.025883	200.092482	314.039403	509.317553	171.362126	232.656951	503.575475	223.439484	317.742485	476.902130	159.033752	91.791558	488.586111	200.913386	105.604025	410.853230	113.874666	41.223018	447.020694	395.369284	86.131099	505.267878	311.006507	36.219531	556.988044	328.171447	43.946328	449.503144	255.563275	855.833560	195.990174	278.303020	771.088794	203.464632	312.806422	771.926993	217.922387	254.745371	685.720635	211.503927	248.675174	531.090454	239.917269	242.613693	515.253053	327.749242	213.524485	396.104993	214.916456	229.823681	313.792542	236.427470	202.643071	226.741183	232.297834	239.884838	317.135556	276.547738	190.732093	91.021527	243.503322	225.047459	111.787985	324.725638	141.566988	37.522998	280.107800	423.122576	92.828102	249.183236	359.010054	47.618514	297.222994	345.641894	52.924598	192.403103	
